# Blender 5.0.1
# www.blender.org
o Plane
v -1.000000 -0.474858 1.000000
v 1.000000 -0.474858 1.000000
v -1.000000 -0.474858 -1.000000
v 1.000000 -0.474858 -1.000000
v -1.000000 0.000000 1.000000
v 1.000000 0.000000 1.000000
v -1.000000 0.000000 -1.000000
v 1.000000 0.000000 -1.000000
vn 1.0000 -0.0000 -0.0000
vn -1.0000 -0.0000 -0.0000
vn -0.0000 -0.0000 -1.0000
vn -0.0000 -0.0000 1.0000
vt 0.925703 0.088787
vt 0.925703 0.443851
vt 0.925703 0.088787
vt 0.887582 0.088787
vt 0.887582 0.443851
vt 0.887582 0.088787
s 0
f 4/1/1 6/2/1 2/3/1
f 1/4/2 7/5/2 3/6/2
f 3/6/3 8/2/3 4/1/3
f 2/3/4 5/5/4 1/4/4
f 4/1/1 8/2/1 6/2/1
f 1/4/2 5/5/2 7/5/2
f 3/6/3 7/5/3 8/2/3
f 2/3/4 6/2/4 5/5/4
