# Blender 5.0.1
# www.blender.org
o Plane.002
v -1.000000 0.000000 1.000000
v 1.000000 0.000000 1.000000
v -1.000000 0.000000 -1.000000
v 1.000000 0.000000 -1.000000
v -1.100000 0.000000 1.100000
v 1.100000 0.000000 1.100000
v -1.100000 0.000000 -1.100000
v 1.100000 0.000000 -1.100000
v -1.000000 0.100000 -1.000000
v -1.000000 0.100000 1.000000
v 1.000000 0.100000 1.000000
v 1.000000 0.100000 -1.000000
v -1.100000 0.100000 -1.100000
v -1.100000 0.100000 1.100000
v 1.100000 0.100000 1.100000
v 1.100000 0.100000 -1.100000
vn -0.0000 1.0000 -0.0000
vn -0.0000 -1.0000 -0.0000
vn 1.0000 -0.0000 -0.0000
vn -1.0000 -0.0000 -0.0000
vn -0.0000 -0.0000 1.0000
vn -0.0000 -0.0000 -1.0000
vt 0.000000 0.000000
s 0
f 1/1/1 7/1/1 5/1/1
f 3/1/1 8/1/1 7/1/1
f 4/1/1 6/1/1 8/1/1
f 2/1/1 5/1/1 6/1/1
f 14/1/2 9/1/2 10/1/2
f 13/1/2 12/1/2 9/1/2
f 16/1/2 11/1/2 12/1/2
f 15/1/2 10/1/2 11/1/2
f 4/1/3 11/1/3 2/1/3
f 1/1/4 9/1/4 3/1/4
f 8/1/5 13/1/5 7/1/5
f 5/1/6 15/1/6 6/1/6
f 3/1/6 12/1/6 4/1/6
f 2/1/5 10/1/5 1/1/5
f 6/1/4 16/1/4 8/1/4
f 7/1/3 14/1/3 5/1/3
f 1/1/1 3/1/1 7/1/1
f 3/1/1 4/1/1 8/1/1
f 4/1/1 2/1/1 6/1/1
f 2/1/1 1/1/1 5/1/1
f 14/1/2 13/1/2 9/1/2
f 13/1/2 16/1/2 12/1/2
f 16/1/2 15/1/2 11/1/2
f 15/1/2 14/1/2 10/1/2
f 4/1/3 12/1/3 11/1/3
f 1/1/4 10/1/4 9/1/4
f 8/1/5 16/1/5 13/1/5
f 5/1/6 14/1/6 15/1/6
f 3/1/6 9/1/6 12/1/6
f 2/1/5 11/1/5 10/1/5
f 6/1/4 15/1/4 16/1/4
f 7/1/3 13/1/3 14/1/3
